<?xml version="1.0" encoding="UTF-8"?>
<svg width="40px" height="40px" viewBox="0 0 30 30" version="1.1" xmlns="http://www.w3.org/2000/svg" xmlns:xlink="http://www.w3.org/1999/xlink">
    <!-- Generator: Sketch 42 (36781) - http://www.bohemiancoding.com/sketch -->
    <title>clear</title>
    <desc>Created with Sketch.</desc>
    <defs></defs>
    <g id="Page-1" stroke="none" stroke-width="1" fill="none" fill-rule="evenodd">
        <g id="Artboard-2" transform="translate(-19.000000, -32.000000)" fill="#FFB017">
            <path d="M38.7528787,51.1207132 C38.8848855,50.9887064 38.9293994,50.8352101 38.8979327,50.6233852 C38.821952,50.111475 38.7620885,49.5834477 38.7045273,49.072305 C38.6239418,48.3585472 38.5471936,47.6762561 38.4343739,47.1098547 L30.3796553,47.1098547 C30.3788878,47.4605938 30.3597007,47.8857786 30.2952323,48.3117308 C30.1601555,49.1989395 29.8646752,49.8259719 29.416466,50.1767109 C29.1064034,50.4192351 28.9483022,50.6663641 28.9705592,50.8728167 C28.9866763,51.0155682 29.0948912,51.1598547 29.2606672,51.2649997 L30.3804227,51.2649997 C30.6498088,50.8966086 31.1647889,50.1214522 31.3390072,49.3677854 C31.3750788,49.1582629 31.3965683,49.0178138 31.3965683,49.0162789 L32.5186263,49.1505881 C32.5078815,49.2818275 32.4848571,49.4207416 32.4487855,49.5872851 C32.3866194,49.9495364 32.2922192,50.4744937 32.1878417,50.9472624 C32.1617474,51.0639196 32.137188,51.169832 32.1141635,51.2649997 L32.1594449,51.2649997 C32.4288309,50.8966086 32.943811,50.1214522 33.1180293,49.3677854 C33.154101,49.1582629 33.1755905,49.0178138 33.1755905,49.0162789 L34.2976484,49.1505881 C34.2861362,49.2818275 34.2638793,49.4207416 34.2270401,49.5872851 C34.1656416,49.9495364 34.0704739,50.4744937 33.9668639,50.9472624 C33.9407695,51.0639196 33.9162101,51.169832 33.8931857,51.2649997 L34.2285751,51.2649997 C34.4979611,50.8973761 35.0121737,50.1229872 35.1871595,49.3677854 C35.2232312,49.156728 35.2454881,49.0162789 35.2454881,49.0147439 L36.3667786,49.1505881 C36.3560339,49.2825949 36.3337769,49.4222766 36.2969378,49.5872851 L36.2961703,49.5880526 C36.2347718,49.9487689 36.1411391,50.4721913 36.0359941,50.9472624 C36.0098997,51.0639196 35.9861078,51.169832 35.9623159,51.2649997 L36.3038451,51.2649997 C36.5732312,50.8973761 37.0874438,50.1237547 37.2624296,49.3677854 C37.2985012,49.1574955 37.3207582,49.0162789 37.3207582,49.0147439 L38.4420487,49.1505881 C38.4313039,49.2825949 38.409047,49.4222766 38.3722078,49.5872851 L38.3722078,49.5880526 C38.2409685,50.3578366 38.1296837,50.8912362 38.0368184,51.2649997 L38.551031,51.2649997 C38.6055222,51.2373704 38.6830379,51.190554 38.7528787,51.1207132 Z M30.6267843,44.0368587 L29.6390356,45.9455853 L38.8242545,45.9455853 L37.8365057,44.0368587 C37.8012016,43.9693204 37.6216109,43.8549656 37.492674,43.8549656 L34.8886092,43.8549656 L34.8886092,40.0306052 C34.8824694,40.0275352 34.8732596,40.0252328 34.8609799,40.0252328 L33.6752209,40.0252328 C33.6629412,40.0252328 33.6537314,40.0275352 33.6475916,40.0306052 L33.6475916,43.8549656 L30.970616,43.8549656 C30.8416791,43.8549656 30.6628559,43.9685529 30.6267843,44.0368587 Z M39.8281203,48.9456706 C39.8849139,49.446836 39.9432425,49.964886 40.0161533,50.4568417 C40.1036462,51.0447325 39.9202181,51.5819696 39.5004057,51.9695478 C39.2087627,52.2397013 38.9010026,52.3486836 38.8419065,52.3678707 L38.7567161,52.3955 L28.9897462,52.3955 L28.8738565,52.3402413 C28.292873,52.0631805 27.9091322,51.5604801 27.8469662,50.9956137 C27.8085922,50.6425722 27.8699907,49.9510713 28.7203602,49.2864323 C29.0511447,49.0277911 29.2537599,48.1520947 29.2499225,47.0753181 C28.9076257,47.0607359 28.6236575,46.9072396 28.4663238,46.6478309 C28.3066877,46.3861197 28.3051527,46.0637774 28.460184,45.7636922 L29.6229185,43.5172737 C29.7395757,43.2931691 29.9421908,43.089019 30.1954597,42.943965 C30.4395188,42.8027484 30.7150447,42.7252328 30.970616,42.7252328 L32.5170913,42.7252328 L32.5170913,39.9991384 C32.5170913,39.3905256 33.0366763,38.8955 33.6752209,38.8955 L34.8609799,38.8955 C35.4995245,38.8955 36.0191095,39.3905256 36.0191095,39.9991384 L36.0191095,42.7252328 L37.492674,42.7252328 C37.7482454,42.7252328 38.0237712,42.8027484 38.2678304,42.943965 C38.5203318,43.089019 38.7237144,43.2931691 38.8403716,43.5172737 L40.0031061,45.7636922 C40.1589048,46.0637774 40.1566024,46.3861197 39.9969662,46.6478309 C39.8979611,46.8113044 39.7483022,46.933334 39.5648741,47.0039423 C39.6753915,47.5902982 39.7498372,48.2541697 39.8281203,48.9456706 Z" id="clear"></path>
        </g>
    </g>
</svg>
