<?xml version="1.0" encoding="UTF-8"?>
<svg width="40px" height="40px" viewBox="0 0 30 30" version="1.1" xmlns="http://www.w3.org/2000/svg" xmlns:xlink="http://www.w3.org/1999/xlink">
    <!-- Generator: Sketch 42 (36781) - http://www.bohemiancoding.com/sketch -->
    <title>hide</title>
    <desc>Created with Sketch.</desc>
    <defs></defs>
    <g id="Page-1" stroke="none" stroke-width="1" fill="none" fill-rule="evenodd">
        <g id="Artboard-2" transform="translate(-19.000000, -92.000000)">
            <g id="hide" transform="translate(27.000000, 100.000000)">
                <path d="M7.5,3.06818182 C4.26477273,3.06818182 1.36363636,5.95295455 1.36363636,6.81818182 C1.36363636,7.6575 4.33568182,10.5681818 7.5,10.5681818 C10.5170455,10.5681818 13.6363636,7.61045455 13.6363636,6.81818182 C13.6363636,6.00272727 10.5906818,3.06818182 7.5,3.06818182 M7.5,11.9318182 C4.02272727,11.9318182 0,8.83704545 0,6.81818182 C0,4.98545455 3.78068182,1.70454545 7.5,1.70454545 C11.145,1.70454545 15,5.02977273 15,6.81818182 C15,8.59568182 11.0270455,11.9318182 7.5,11.9318182" id="Fill-2" fill="#FFB017"></path>
                <path d="M7.5,5.11363636 C6.55977273,5.11363636 5.79545455,5.87795455 5.79545455,6.81818182 C5.79545455,7.75840909 6.55977273,8.52272727 7.5,8.52272727 C8.44022727,8.52272727 9.20454545,7.75840909 9.20454545,6.81818182 C9.20454545,5.87795455 8.44022727,5.11363636 7.5,5.11363636 M7.5,9.88636364 C5.80840909,9.88636364 4.43181818,8.50977273 4.43181818,6.81818182 C4.43181818,5.12659091 5.80840909,3.75 7.5,3.75 C9.19159091,3.75 10.5681818,5.12659091 10.5681818,6.81818182 C10.5681818,8.50977273 9.19159091,9.88636364 7.5,9.88636364" id="Fill-4" fill="#FFB017"></path>
                <path d="M12.9545455,13.2954545 C12.6927273,13.2954545 12.4309091,13.1959091 12.2311364,12.9961364 L1.32204545,2.08704545 C0.923181818,1.6875 0.923181818,1.03977273 1.32204545,0.640227273 C1.72159091,0.241363636 2.36931818,0.241363636 2.76886364,0.640227273 L13.6779545,11.5493182 C14.0768182,11.9488636 14.0768182,12.5965909 13.6779545,12.9961364 C13.4781818,13.1959091 13.2163636,13.2954545 12.9545455,13.2954545" id="Fill-6" fill="#FFFFFF"></path>
                <path d="M12.9545455,12.9545455 C12.78,12.9545455 12.6054545,12.8877273 12.4725,12.7547727 L1.56340909,1.84568182 C1.29681818,1.57909091 1.29681818,1.14818182 1.56340909,0.881590909 C1.83,0.615 2.26090909,0.615 2.5275,0.881590909 L13.4365909,11.7906818 C13.7031818,12.0572727 13.7031818,12.4881818 13.4365909,12.7547727 C13.3036364,12.8877273 13.1290909,12.9545455 12.9545455,12.9545455" id="Fill-8" fill="#FFB017"></path>
            </g>
        </g>
    </g>
</svg>
