<?xml version="1.0" encoding="UTF-8" standalone="no"?>
<svg width="20px" height="20px" viewBox="0 0 20 20" version="1.1" xmlns="http://www.w3.org/2000/svg" xmlns:xlink="http://www.w3.org/1999/xlink" xmlns:sketch="http://www.bohemiancoding.com/sketch/ns">
    <!-- Generator: Sketch 3.3.3 (12072) - http://www.bohemiancoding.com/sketch -->
    <title>Rectangle 53</title>
    <desc>Created with Sketch.</desc>
    <defs></defs>
    <g id="Page-1" stroke="none" stroke-width="1" fill="none" fill-rule="evenodd" sketch:type="MSPage">
        <g id="Artboard-3" sketch:type="MSArtboardGroup" fill="#FFFFFF">
            <path d="M18.454067,15.3870813 C18.7913876,15.7205741 19,16.1822966 19,16.692823 C19,17.7124402 18.1665072,18.5382775 17.137799,18.5382775 C16.623445,18.5382775 16.1578947,18.3315789 15.8210526,17.9971292 L15.8210526,17.9971292 L12.2258373,14.7411483 C11.1177034,15.3894737 9.82918661,15.7688995 8.44784688,15.7688995 C4.33492823,15.7688995 1,12.4626794 1,8.384689 C1,4.30622009 4.33492823,1 8.44784688,1 C12.561244,1 15.8956938,4.30574163 15.8956938,8.384689 C15.8956938,9.75311005 15.5138756,11.0311005 14.8593301,12.1301435 L18.454067,15.3870813 L18.454067,15.3870813 Z M8.44784688,2.84688992 C5.36315789,2.84688992 2.86220095,5.32631576 2.86220095,8.38516743 C2.86220095,11.4435406 5.36315789,13.9229665 8.44784688,13.9229665 C11.5334928,13.9229665 14.0339713,11.4435406 14.0339713,8.38516743 C14.0344497,5.32631576 11.5334928,2.84688992 8.44784688,2.84688992 L8.44784688,2.84688992 Z" id="Shape" sketch:type="MSShapeGroup"></path>
        </g>
    </g>
</svg>