<?xml version="1.0" encoding="UTF-8"?>
<svg width="40px" height="40px" viewBox="0 0 30 30" version="1.1" xmlns="http://www.w3.org/2000/svg" xmlns:xlink="http://www.w3.org/1999/xlink">
    <!-- Generator: Sketch 42 (36781) - http://www.bohemiancoding.com/sketch -->
    <title>sort</title>
    <desc>Created with Sketch.</desc>
    <defs></defs>
    <g id="Page-1" stroke="none" stroke-width="1" fill="none" fill-rule="evenodd">
        <g id="Artboard-2" transform="translate(-19.000000, -62.000000)" fill="#FFB017">
            <path d="M31.9056054,71.0394444 C32.1840776,71.1366667 32.3708832,71.3998611 32.3708832,71.6943056 L32.3708832,82.8054167 C32.3708832,83.1894444 32.0604665,83.4998611 31.6764388,83.4998611 C31.292411,83.4998611 30.9819943,83.1894444 30.9819943,82.8054167 L30.9819943,73.6776389 L29.2368554,75.8623611 C28.9979665,76.1623611 28.5618554,76.2123611 28.261161,75.9720833 C27.961161,75.7325 27.9125499,75.2956944 28.1521332,74.9956944 L31.1340776,71.2609722 C31.3181054,71.0311111 31.6306054,70.9415278 31.9056054,71.0394444 Z M39.9615776,78.5277778 C40.2615776,78.7666667 40.3101888,79.2041667 40.0706054,79.5034722 L37.0893554,83.2388889 C36.9553276,83.4069444 36.7539388,83.5 36.5469943,83.5 C36.4706054,83.5 36.3928276,83.4875 36.3178276,83.4611111 C36.0393554,83.3638889 35.8525499,83.1006944 35.8525499,82.8055556 L35.8525499,71.6944444 C35.8525499,71.3104167 36.1629665,71 36.5469943,71 C36.9310221,71 37.2414388,71.3104167 37.2414388,71.6944444 L37.2414388,80.8222222 L38.9858832,78.6368056 C39.2247721,78.3381944 39.6615776,78.2881944 39.9615776,78.5277778 Z" id="sort"></path>
        </g>
    </g>
</svg>
